<svg class="nc-icon outline" xmlns="http://www.w3.org/2000/svg" xmlns:xlink="http://www.w3.org/1999/xlink" x="0px" y="0px" width="64px" height="64px" viewBox="0 0 64 64"><g transform="translate(0.5, 0.5)"><path fill="none" stroke="#041e42" stroke-width="1" stroke-linecap="square" stroke-miterlimit="10" d="M10,32c0-12.2,9.8-22,22-22
	c12.1,0,22,9.8,22,22c0,12.1-9.9,22-22,22C19.8,54,10,44.1,10,32z" stroke-linejoin="miter"></path>
<line fill="none" stroke="#041e42" stroke-width="1" stroke-linecap="square" stroke-miterlimit="10" x1="32" y1="2" x2="32" y2="10" stroke-linejoin="miter"></line>
<line fill="none" stroke="#041e42" stroke-width="1" stroke-linecap="square" stroke-miterlimit="10" x1="52" y1="12" x2="47.5" y2="16.4" stroke-linejoin="miter"></line>
<line fill="none" stroke="#041e42" stroke-width="1" stroke-linecap="square" stroke-miterlimit="10" x1="52" y1="52" x2="47.5" y2="47.6" stroke-linejoin="miter"></line>
<line fill="none" stroke="#041e42" stroke-width="1" stroke-linecap="square" stroke-miterlimit="10" x1="12" y1="52" x2="16.4" y2="47.5" stroke-linejoin="miter"></line>
<line fill="none" stroke="#041e42" stroke-width="1" stroke-linecap="square" stroke-miterlimit="10" x1="12" y1="12" x2="16.4" y2="16.4" stroke-linejoin="miter"></line>
<line fill="none" stroke="#041e42" stroke-width="1" stroke-linecap="square" stroke-miterlimit="10" x1="62" y1="32" x2="54" y2="32" stroke-linejoin="miter"></line>
<line fill="none" stroke="#041e42" stroke-width="1" stroke-linecap="square" stroke-miterlimit="10" x1="32" y1="62" x2="32" y2="54" stroke-linejoin="miter"></line>
<line fill="none" stroke="#041e42" stroke-width="1" stroke-linecap="square" stroke-miterlimit="10" x1="2" y1="32" x2="10" y2="32" stroke-linejoin="miter"></line>
<path data-color="color-2" fill="none" stroke="#041e42" stroke-width="1" stroke-linecap="square" stroke-miterlimit="10" d="M22,34
	c0,5.5,4.5,10,10,10s10-4.5,10-10" stroke-linejoin="miter"></path>
<line data-color="color-2" fill="none" stroke="#041e42" stroke-width="1" stroke-linecap="square" stroke-miterlimit="10" x1="37" y1="24" x2="42" y2="24" stroke-linejoin="miter"></line>
<line data-color="color-2" fill="none" stroke="#041e42" stroke-width="1" stroke-linecap="square" stroke-miterlimit="10" x1="22" y1="24" x2="27" y2="24" stroke-linejoin="miter"></line></g></svg>