<?xml version="1.0" encoding="utf-8"?>
<!-- Generator: Adobe Illustrator 16.0.3, SVG Export Plug-In . SVG Version: 6.00 Build 0)  -->
<!DOCTYPE svg PUBLIC "-//W3C//DTD SVG 1.1//EN" "http://www.w3.org/Graphics/SVG/1.1/DTD/svg11.dtd">
<svg version="1.1" id="Layer_1" xmlns="http://www.w3.org/2000/svg" xmlns:xlink="http://www.w3.org/1999/xlink" x="0px" y="0px"
	 width="256px" height="256px" viewBox="0 0 256 256" enable-background="new 0 0 256 256" xml:space="preserve">
<g transform="translate(0.5, 0.5)">
	<line fill="none" stroke="#041E42" stroke-width="3" stroke-miterlimit="10" x1="46.781" y1="169.867" x2="85.132" y2="208.221"/>
	<line fill="none" stroke="#041E42" stroke-width="3" stroke-miterlimit="10" x1="196.992" y1="96.361" x2="158.643" y2="58.01"/>
	<polyline fill="none" stroke="#041E42" stroke-width="3" stroke-linecap="square" stroke-miterlimit="10" points="129.878,86.773 
		181.014,35.638 219.365,73.989 168.229,125.125 	"/>
	<polyline fill="none" stroke="#041E42" stroke-width="3" stroke-linecap="square" stroke-miterlimit="10" points="123.484,169.867 
		85.132,208.221 40.39,214.611 46.781,169.867 85.132,131.518 	"/>
	
		<rect x="27.243" y="96.684" transform="matrix(0.7071 0.7071 -0.7071 0.7071 127.8384 -51.9885)" fill="none" stroke="#041E42" stroke-width="3" stroke-linecap="square" stroke-miterlimit="10" width="198.864" height="63.274"/>
	
		<line fill="none" stroke="#041E42" stroke-width="3" stroke-linecap="square" stroke-miterlimit="10" x1="149.053" y1="105.948" x2="129.878" y2="125.125"/>
	
		<line fill="none" stroke="#041E42" stroke-width="3" stroke-linecap="square" stroke-miterlimit="10" x1="129.878" y1="86.773" x2="117.093" y2="99.557"/>
	
		<line fill="none" stroke="#041E42" stroke-width="3" stroke-linecap="square" stroke-miterlimit="10" x1="187.404" y1="144.301" x2="168.229" y2="163.477"/>
	
		<line fill="none" stroke="#041E42" stroke-width="3" stroke-linecap="square" stroke-miterlimit="10" x1="168.229" y1="125.125" x2="155.443" y2="137.908"/>
	
		<line fill="none" stroke="#041E42" stroke-width="3" stroke-linecap="square" stroke-miterlimit="10" x1="110.701" y1="67.597" x2="91.524" y2="86.773"/>
</g>
</svg>
