<?xml version="1.0" encoding="utf-8"?>
<!-- Generator: Adobe Illustrator 16.0.3, SVG Export Plug-In . SVG Version: 6.00 Build 0)  -->
<!DOCTYPE svg PUBLIC "-//W3C//DTD SVG 1.1//EN" "http://www.w3.org/Graphics/SVG/1.1/DTD/svg11.dtd">
<svg version="1.1" id="Layer_1" xmlns="http://www.w3.org/2000/svg" xmlns:xlink="http://www.w3.org/1999/xlink" x="0px" y="0px"
	 width="256px" height="256px" viewBox="0 0 256 256" enable-background="new 0 0 256 256" xml:space="preserve">
<path fill="none" stroke="#041E42" stroke-width="2" stroke-miterlimit="10" d="M206.357,45.606l18.057,14.146l-31.702,39.867
	c0,0,17.217,23.938,4.736,47.333c-12.464,23.419-33.275,26.145-33.275,26.145l-7.381-5.188l23.056-28.406l-11.286-29.085
	l-31.525-4.872l-20.756,27.1l-6.836-4.641c0,0-7.304-36.314,40.519-47.083c0,0,16.725-1.092,23.87,3.39L206.357,45.606z
	 M210.586,40.524l5.038-6.387l18.239,14.602l-5.204,6.777L210.586,40.524z M212.252,38.115l3.372-3.979l18.239,14.602l-5.204,6.777
	l-6.126-4.864l1.911-2.938L212.252,38.115z M202.775,49.892l3.585-4.278l18.056,14.145l-31.715,39.869
	c0,0,14.607,21.203,7.561,40.612c-7.039,19.401-22.84,30.314-36.079,32.867l-3.41-2.401c0,0,31.646-13.098,30.423-43.076
	c-1.568-19.221-8.658-28.768-8.658-28.768l32.176-39.546L202.775,49.892z M109.424,128.011l18.487-23.587l9.107,1.125
	l-20.763,27.105L109.424,128.011z M36.187,199.928l17.648,14.643l32.252-39.41c0,0,27.039,11.735,47.276-5.415
	c20.246-17.155,18.494-38.038,18.494-38.038l-6.649-6.129l-22.847,28.543l-30.811-4.878l-11.46-29.784l22.105-26.013l-5.986-5.701
	c0,0-37.038,0.538-37.442,49.566c0,0,2.486,16.573,8.378,22.623L36.187,199.928z M32.112,205.132l-5.174,6.27l18.12,14.737
	l5.538-6.516L32.112,205.132z M30.101,207.254l-3.163,4.146l18.12,14.737l5.539-6.515l-6.046-4.978l-2.491,2.48L30.101,207.254z
	 M39.611,195.508l-3.424,4.42l17.648,14.643l32.252-39.41c0,0,23.804,9.752,41.285-1.25c17.477-10.98,24.805-28.702,24.478-42.215
	l-3.04-2.827c0,0-6.13,33.696-35.673,38.854c-19.12,2.539-29.952-2.378-29.952-2.378l-31.847,39.82L39.611,195.508z M96.21,87.736
	l-19.128,23.056l3.004,8.66l22.112-26.015L96.21,87.736z"/>
</svg>
