<?xml version="1.0" encoding="utf-8"?>
<!-- Generator: Adobe Illustrator 16.0.3, SVG Export Plug-In . SVG Version: 6.00 Build 0)  -->
<!DOCTYPE svg PUBLIC "-//W3C//DTD SVG 1.1//EN" "http://www.w3.org/Graphics/SVG/1.1/DTD/svg11.dtd">
<svg version="1.1" id="Layer_1" xmlns="http://www.w3.org/2000/svg" xmlns:xlink="http://www.w3.org/1999/xlink" x="0px" y="0px"
	 width="256px" height="256px" viewBox="0 0 256 256" enable-background="new 0 0 256 256" xml:space="preserve">
<path fill="#041E42" d="M42.789,132.536c0,48.533,39.339,87.873,87.875,87.873c48.532,0,87.873-39.34,87.873-87.873
	c0-48.537-39.341-87.875-87.873-87.875C82.127,44.662,42.789,84,42.789,132.536z M46.457,132.536
	c0-46.56,37.737-84.298,84.206-84.298c46.468,0,84.206,37.738,84.206,84.298s-37.738,84.298-84.206,84.298
	C84.194,216.834,46.457,179.096,46.457,132.536z"/>
<path fill="#041E42" d="M130.663,73.674c7.298,0,13.635,4.225,16.708,10.371c-1.633,0.96-3.169,2.208-4.609,3.553
	c-3.265,3.264-7.488,4.993-12.099,4.993c-4.514,0-8.834-1.729-12.099-4.993c-1.44-1.441-2.977-2.593-4.609-3.553
	C117.028,77.899,123.365,73.674,130.663,73.674z M149.1,90.19c0.098,0.672,0.098,1.344,0.098,2.016
	c0,11.907,9.697,21.701,21.699,21.701c0.674,0,1.346,0,2.018,0.096c-0.576,0.769-1.152,1.44-1.729,2.112
	c-4.418,4.417-6.817,10.179-6.817,16.42c0,6.146,2.399,12.003,6.817,16.42c0.672,0.672,1.248,1.344,1.729,2.111
	c-0.672,0.098-1.344,0.098-2.018,0.098c-11.905,0-21.699,9.697-21.699,21.701c0,0.67,0,1.344-0.098,2.017
	c-0.769-0.577-1.439-1.153-2.113-1.825c-4.416-4.416-10.178-6.816-16.418-6.816c-6.241,0-12.003,2.4-16.42,6.816
	c-0.672,0.672-1.344,1.248-2.112,1.825c-0.096-0.673-0.096-1.347-0.096-2.017c0-11.907-9.699-21.701-21.702-21.701
	c-0.672,0-1.345,0-2.017-0.098c0.576-0.769,1.152-1.439,1.728-2.111c4.417-4.417,6.819-10.18,6.819-16.42
	c0-6.146-2.401-12.004-6.819-16.42c-0.672-0.672-1.248-1.344-1.728-2.112c0.672-0.096,1.345-0.096,2.017-0.096
	c11.907,0,21.702-9.697,21.702-21.701c0-0.672,0-1.344,0.096-2.016c0.769,0.576,1.44,1.152,2.112,1.824
	c4.417,4.417,10.179,6.818,16.42,6.818c6.24,0,12.002-2.401,16.418-6.818C147.755,91.342,148.428,90.766,149.1,90.19z
	 M179.154,115.828c6.146,3.073,10.369,9.41,10.369,16.708c0,7.298-4.225,13.635-10.369,16.708c-0.961-1.633-2.209-3.169-3.553-4.609
	c-3.266-3.265-4.994-7.488-4.994-12.099s1.729-8.834,4.994-12.1C176.945,119.093,178.098,117.556,179.154,115.828z M147.371,181.027
	c-3.073,6.146-9.41,10.371-16.708,10.371c-7.298,0-13.635-4.227-16.708-10.371c1.632-0.959,3.264-2.209,4.609-3.555
	c3.265-3.264,7.489-4.99,12.099-4.99c4.515,0,8.834,1.728,12.099,4.99C144.105,178.818,145.643,179.973,147.371,181.027z
	 M82.172,149.244c-6.146-3.073-10.37-9.41-10.37-16.708s4.225-13.635,10.37-16.708c0.959,1.631,2.208,3.169,3.552,4.608
	c3.266,3.266,4.994,7.49,4.994,12.1s-1.825,8.834-4.994,12.099C84.38,145.979,83.229,147.516,82.172,149.244z M130.663,194.473
	c8.546,0,15.843-4.897,19.396-12.101c2.785,1.151,5.858,1.825,9.026,1.825c6.242,0,12.003-2.401,16.42-6.819
	c4.417-4.416,6.817-10.179,6.817-16.419c0-3.168-0.672-6.241-1.824-9.025c7.105-3.555,12.1-10.947,12.1-19.396
	c0-8.45-4.896-15.843-12.1-19.397c1.152-2.784,1.824-5.857,1.824-9.026c0-6.144-2.4-12.002-6.817-16.419s-10.178-6.817-16.42-6.817
	c-3.168,0-6.241,0.671-9.026,1.824c-3.554-7.106-10.945-12.195-19.396-12.195c-8.547,0-15.844,4.993-19.396,12.195
	c-2.786-1.153-5.858-1.824-9.027-1.824c-6.242,0-12.003,2.4-16.419,6.817c-4.417,4.417-6.817,10.178-6.817,16.419
	c0,3.169,0.576,6.242,1.824,9.026c-7.106,3.554-12.099,10.948-12.099,19.397s4.897,15.843,12.099,19.396
	c-1.152,2.784-1.824,5.857-1.824,9.025c0,6.146,2.4,12.003,6.817,16.419c4.417,4.418,10.178,6.819,16.419,6.819
	c3.168,0,6.241-0.674,9.027-1.825C114.819,189.479,122.116,194.473,130.663,194.473z M151.98,176.516
	c0.19-1.25,0.287-2.4,0.287-3.744c0-10.275,8.354-18.629,18.629-18.629c1.248,0,2.496-0.097,3.744-0.289
	c1.057,2.209,1.537,4.608,1.537,7.105c0,4.514-1.824,8.834-4.994,12.1c-3.265,3.265-7.488,4.993-12.099,4.993
	C156.59,178.052,154.188,177.475,151.98,176.516z M174.643,111.219c-1.25-0.193-2.496-0.289-3.746-0.289
	c-10.272,0-18.627-8.354-18.627-18.628c0-1.248-0.098-2.497-0.289-3.745c2.209-1.056,4.609-1.536,7.105-1.536
	c4.609,0,8.834,1.729,12.1,4.993c3.168,3.265,4.994,7.49,4.994,12.099C176.18,106.61,175.697,109.01,174.643,111.219z
	 M109.346,88.557c-0.191,1.249-0.289,2.497-0.289,3.745c0,10.274-8.354,18.628-18.629,18.628c-1.248,0-2.495,0.096-3.745,0.289
	c-1.056-2.209-1.536-4.609-1.536-7.106c0-4.513,1.825-8.834,4.994-12.099c3.264-3.264,7.489-4.993,12.099-4.993
	C104.737,87.021,107.138,87.598,109.346,88.557z M86.684,153.854c1.25,0.192,2.401,0.289,3.745,0.289
	c10.275,0,18.629,8.354,18.629,18.629c0,1.246,0.097,2.494,0.289,3.744c-2.208,1.057-4.609,1.536-7.106,1.536
	c-4.609,0-8.834-1.729-12.099-4.993c-3.265-3.266-4.994-7.49-4.994-12.1C85.148,158.462,85.628,156.063,86.684,153.854z"/>
</svg>
