<?xml version="1.0" encoding="utf-8"?>
<!-- Generator: Adobe Illustrator 16.0.3, SVG Export Plug-In . SVG Version: 6.00 Build 0)  -->
<!DOCTYPE svg PUBLIC "-//W3C//DTD SVG 1.1//EN" "http://www.w3.org/Graphics/SVG/1.1/DTD/svg11.dtd">
<svg version="1.1" id="ps_x5F_cc_x5F_app_x5F_RGB.svg"
	 xmlns="http://www.w3.org/2000/svg" xmlns:xlink="http://www.w3.org/1999/xlink" x="0px" y="0px" width="841.889px"
	 height="595.281px" viewBox="0 0 841.889 595.281" enable-background="new 0 0 841.889 595.281" xml:space="preserve">
<path fill="#041E42" d="M158.411,297.64c0,145.004,117.529,262.533,262.533,262.533S683.479,442.644,683.479,297.64
	c0-145.004-117.53-262.534-262.534-262.534S158.411,152.636,158.411,297.64z M185.376,297.64
	c0-130.25,105.573-235.823,235.568-235.823S656.513,167.391,656.513,297.64c0,130.25-105.573,235.822-235.568,235.822
	S185.376,427.89,185.376,297.64z"/>
<path fill="#041E42" d="M420.945,141.697c19.334,0,36.124,11.193,44.265,27.474c-4.325,2.544-8.396,5.851-12.211,9.413
	c-8.649,8.649-19.843,13.229-32.054,13.229c-11.956,0-23.404-4.579-32.054-13.229c-3.815-3.816-7.886-6.869-12.211-9.413
	C384.821,152.89,401.611,141.697,420.945,141.697z M469.788,185.453c0.254,1.781,0.254,3.562,0.254,5.342
	c0,31.545,25.694,57.493,57.493,57.493c1.781,0,3.562,0,5.342,0.254c-1.525,2.035-3.053,3.816-4.578,5.597
	c-11.703,11.702-18.063,26.966-18.063,43.501c0,16.281,6.359,31.799,18.063,43.502c1.78,1.779,3.307,3.561,4.578,5.596
	c-1.78,0.254-3.561,0.254-5.342,0.254c-31.545,0-57.493,25.695-57.493,57.494c0,1.779,0,3.561-0.254,5.342
	c-2.035-1.527-3.816-3.053-5.597-4.834c-11.702-11.701-26.966-18.061-43.501-18.061c-16.536,0-31.8,6.359-43.502,18.061
	c-1.78,1.781-3.562,3.307-5.596,4.834c-0.255-1.781-0.255-3.563-0.255-5.342c0-31.545-25.693-57.494-57.493-57.494
	c-1.78,0-3.562,0-5.342-0.254c1.526-2.035,3.053-3.816,4.579-5.596c11.702-11.703,18.062-26.967,18.062-43.502
	c0-16.281-6.359-31.799-18.062-43.501c-1.781-1.781-3.308-3.562-4.579-5.597c1.78-0.254,3.562-0.254,5.342-0.254
	c31.545,0,57.493-25.694,57.493-57.493c0-1.781,0-3.562,0.255-5.342c2.035,1.526,3.815,3.053,5.596,4.833
	c11.702,11.702,26.966,18.062,43.502,18.062c16.535,0,31.799-6.36,43.501-18.062C466.227,188.505,468.007,186.979,469.788,185.453z
	 M549.413,253.375c16.281,8.141,27.475,24.931,27.475,44.265s-11.193,36.123-27.475,44.264c-2.544-4.324-5.852-8.395-9.413-12.211
	c-8.648-8.648-13.229-19.842-13.229-32.053s4.58-23.404,13.229-32.054C543.562,262.025,546.615,257.955,549.413,253.375z
	 M465.209,426.109c-8.141,16.281-24.931,27.475-44.265,27.475s-36.124-11.193-44.265-27.475c4.325-2.545,8.649-5.852,12.211-9.412
	c8.649-8.65,19.843-13.229,32.054-13.229c11.956,0,23.404,4.578,32.054,13.229C456.56,420.257,460.63,423.31,465.209,426.109z
	 M292.476,341.904c-16.281-8.141-27.474-24.93-27.474-44.264s11.192-36.124,27.474-44.265c2.544,4.325,5.852,8.395,9.413,12.211
	c8.649,8.649,13.229,19.843,13.229,32.054s-4.834,23.404-13.229,32.053C298.327,333.255,295.275,337.326,292.476,341.904z
	 M420.945,461.724c22.641,0,41.975-12.975,51.388-32.055c7.377,3.053,15.518,4.834,23.913,4.834
	c16.535,0,31.799-6.359,43.501-18.063c11.702-11.701,18.062-26.965,18.062-43.5c0-8.395-1.78-16.535-4.833-23.914
	c18.825-9.412,32.054-29,32.054-51.387s-12.975-41.975-32.054-51.388c3.053-7.377,4.833-15.518,4.833-23.913
	c0-16.281-6.359-31.799-18.062-43.501s-26.966-18.062-43.501-18.062c-8.396,0-16.536,1.781-23.913,4.833
	c-9.413-18.825-29.001-32.308-51.388-32.308c-22.641,0-41.975,13.228-51.387,32.308c-7.378-3.053-15.519-4.833-23.913-4.833
	c-16.536,0-31.8,6.36-43.502,18.062s-18.062,26.966-18.062,43.501c0,8.395,1.526,16.535,4.833,23.913
	c-18.824,9.413-32.053,29.001-32.053,51.388s12.974,41.975,32.053,51.387c-3.053,7.379-4.833,15.52-4.833,23.914
	c0,16.281,6.359,31.799,18.062,43.5c11.702,11.703,26.966,18.063,43.502,18.063c8.395,0,16.535-1.781,23.913-4.834
	C378.97,448.496,398.304,461.724,420.945,461.724z M477.42,414.152c0.509-3.307,0.763-6.359,0.763-9.922
	c0-27.219,22.133-49.352,49.353-49.352c3.307,0,6.614-0.254,9.921-0.764c2.799,5.852,4.07,12.211,4.07,18.826
	c0,11.957-4.833,23.404-13.228,32.053c-8.65,8.65-19.843,13.229-32.054,13.229C489.631,418.222,483.271,416.697,477.42,414.152z
	 M537.456,241.165c-3.307-0.509-6.614-0.763-9.921-0.763c-27.22,0-49.353-22.132-49.353-49.353c0-3.307-0.254-6.614-0.763-9.921
	c5.851-2.798,12.211-4.07,18.825-4.07c12.211,0,23.403,4.579,32.054,13.229c8.395,8.649,13.228,19.843,13.228,32.054
	C541.527,228.954,540.255,235.314,537.456,241.165z M364.47,181.128c-0.509,3.307-0.764,6.614-0.764,9.921
	c0,27.22-22.132,49.353-49.353,49.353c-3.307,0-6.614,0.254-9.921,0.763c-2.799-5.851-4.07-12.211-4.07-18.825
	c0-11.957,4.833-23.404,13.229-32.054c8.649-8.649,19.843-13.229,32.054-13.229C352.259,177.058,358.618,178.584,364.47,181.128z
	 M304.433,354.115c3.307,0.51,6.359,0.764,9.921,0.764c27.221,0,49.353,22.133,49.353,49.352c0,3.309,0.255,6.615,0.764,9.922
	c-5.852,2.799-12.211,4.07-18.825,4.07c-12.211,0-23.404-4.578-32.054-13.229c-8.649-8.648-13.229-19.842-13.229-32.053
	C300.363,366.326,301.634,359.966,304.433,354.115z"/>
</svg>
