<svg class="nc-icon outline" xmlns="http://www.w3.org/2000/svg" xmlns:xlink="http://www.w3.org/1999/xlink" x="0px" y="0px" width="64px" height="64px" viewBox="0 0 64 64"><g transform="translate(0.5, 0.5)">
<line data-cap="butt" fill="none" stroke="#041e42" stroke-width="1" stroke-miterlimit="10" x1="32" y1="11" x2="32" y2="38" stroke-linejoin="miter" stroke-linecap="butt"></line>
<polyline data-color="color-2" fill="none" stroke="#041e42" stroke-width="1" stroke-linecap="square" stroke-miterlimit="10" points="
	56,10 62,10 62,58 2,58 2,10 8,10 " stroke-linejoin="miter"></polyline>
<path fill="none" stroke="#041e42" stroke-width="1" stroke-linecap="square" stroke-miterlimit="10" d="M32,11
	C25.25,5.917,16.333,4,8,4c0,4.833,0,41,0,41c8.333,0,17.25,1.917,24,7c6.75-5.083,15.667-7,24-7c0,0,0-36.167,0-41
	C47.667,4,38.75,5.917,32,11z" stroke-linejoin="miter"></path>
</g></svg>